<svg xmlns="http://www.w3.org/2000/svg" xmlns:xlink="http://www.w3.org/1999/xlink" width="200" zoomAndPan="magnify" viewBox="0 0 150 74.999997" height="100" preserveAspectRatio="xMidYMid meet" version="1.0"><defs><g/></defs><g fill="#00fff7" fill-opacity="1"><g transform="translate(5.601565, 41.583033)"><g><path d="M 11.078125 -6.578125 C 11.078125 -4.972656 10.875 -3.691406 10.46875 -2.734375 C 10.070312 -1.773438 9.441406 -1.078125 8.578125 -0.640625 C 7.722656 -0.210938 6.609375 0 5.234375 0 L 1 0 L 1 -13.859375 L 5.234375 -13.859375 C 6.609375 -13.859375 7.722656 -13.644531 8.578125 -13.21875 C 9.441406 -12.789062 10.070312 -12.09375 10.46875 -11.125 C 10.875 -10.164062 11.078125 -8.882812 11.078125 -7.28125 Z M 3.875 -2.484375 L 5.078125 -2.484375 C 5.878906 -2.484375 6.503906 -2.628906 6.953125 -2.921875 C 7.398438 -3.222656 7.710938 -3.675781 7.890625 -4.28125 C 8.066406 -4.882812 8.15625 -5.648438 8.15625 -6.578125 L 8.15625 -7.28125 C 8.15625 -8.207031 8.066406 -8.972656 7.890625 -9.578125 C 7.710938 -10.179688 7.398438 -10.628906 6.953125 -10.921875 C 6.503906 -11.222656 5.878906 -11.375 5.078125 -11.375 L 3.875 -11.375 Z M 3.875 -2.484375 "/></g></g></g><g fill="#00fff7" fill-opacity="1"><g transform="translate(17.372396, 41.583033)"><g><path d="M 3.765625 -14.21875 L 3.765625 -8.515625 C 4.078125 -8.859375 4.457031 -9.128906 4.90625 -9.328125 C 5.363281 -9.535156 5.90625 -9.640625 6.53125 -9.640625 C 7.25 -9.640625 7.816406 -9.484375 8.234375 -9.171875 C 8.660156 -8.867188 8.96875 -8.46875 9.15625 -7.96875 C 9.351562 -7.476562 9.453125 -6.945312 9.453125 -6.375 L 9.453125 0 L 6.65625 0 L 6.65625 -5.921875 C 6.65625 -6.265625 6.566406 -6.566406 6.390625 -6.828125 C 6.222656 -7.097656 5.898438 -7.234375 5.421875 -7.234375 C 4.984375 -7.234375 4.625 -7.125 4.34375 -6.90625 C 4.0625 -6.695312 3.867188 -6.507812 3.765625 -6.34375 L 3.765625 0 L 0.953125 0 L 0.953125 -14.21875 Z M 3.765625 -14.21875 "/></g></g></g><g fill="#00fff7" fill-opacity="1"><g transform="translate(27.669652, 41.583033)"><g><path d="M 4.921875 -3.40625 L 6.703125 -9.421875 L 9.75 -9.421875 L 6.4375 -0.5 L 5.21875 3.546875 L 1.890625 3.546875 L 3.390625 -0.5 L 0.09375 -9.421875 L 3.140625 -9.421875 Z M 4.921875 -3.40625 "/></g></g></g><g fill="#00fff7" fill-opacity="1"><g transform="translate(37.452049, 41.583033)"><g><path d="M 6.53125 0 L 6.359375 -0.984375 C 6.023438 -0.617188 5.613281 -0.320312 5.125 -0.09375 C 4.644531 0.125 4.070312 0.234375 3.40625 0.234375 C 2.707031 0.234375 2.144531 0.101562 1.71875 -0.15625 C 1.289062 -0.414062 0.984375 -0.757812 0.796875 -1.1875 C 0.617188 -1.625 0.53125 -2.09375 0.53125 -2.59375 L 0.53125 -2.765625 C 0.53125 -3.453125 0.675781 -4 0.96875 -4.40625 C 1.257812 -4.8125 1.660156 -5.117188 2.171875 -5.328125 C 2.679688 -5.546875 3.257812 -5.703125 3.90625 -5.796875 L 6.078125 -6.125 C 6.066406 -6.59375 5.972656 -6.941406 5.796875 -7.171875 C 5.617188 -7.398438 5.285156 -7.515625 4.796875 -7.515625 C 4.285156 -7.515625 3.945312 -7.390625 3.78125 -7.140625 C 3.613281 -6.890625 3.53125 -6.613281 3.53125 -6.3125 L 0.890625 -6.3125 L 0.890625 -6.46875 C 0.890625 -7.007812 1.003906 -7.519531 1.234375 -8 C 1.472656 -8.488281 1.882812 -8.882812 2.46875 -9.1875 C 3.050781 -9.488281 3.859375 -9.640625 4.890625 -9.640625 C 5.921875 -9.640625 6.722656 -9.5 7.296875 -9.21875 C 7.878906 -8.9375 8.285156 -8.523438 8.515625 -7.984375 C 8.753906 -7.453125 8.875 -6.8125 8.875 -6.0625 L 8.875 -2.671875 L 9.0625 0 Z M 4.4375 -2.046875 C 4.84375 -2.046875 5.175781 -2.125 5.4375 -2.28125 C 5.707031 -2.4375 5.921875 -2.59375 6.078125 -2.75 L 6.078125 -4.484375 L 4.484375 -4.234375 C 4.035156 -4.160156 3.726562 -4.023438 3.5625 -3.828125 C 3.40625 -3.628906 3.328125 -3.390625 3.328125 -3.109375 L 3.328125 -3 C 3.328125 -2.757812 3.410156 -2.539062 3.578125 -2.34375 C 3.753906 -2.144531 4.039062 -2.046875 4.4375 -2.046875 Z M 4.4375 -2.046875 "/></g></g></g><g fill="#00fff7" fill-opacity="1"><g transform="translate(47.198936, 41.583033)"><g><path d="M 9.453125 0 L 6.65625 0 L 6.65625 -5.921875 C 6.65625 -6.265625 6.566406 -6.566406 6.390625 -6.828125 C 6.222656 -7.097656 5.898438 -7.234375 5.421875 -7.234375 C 4.984375 -7.234375 4.625 -7.125 4.34375 -6.90625 C 4.0625 -6.695312 3.867188 -6.507812 3.765625 -6.34375 L 3.765625 0 L 0.953125 0 L 0.953125 -6.75 L 0.796875 -9.421875 L 3.296875 -9.421875 L 3.515625 -8.203125 C 3.816406 -8.617188 4.210938 -8.960938 4.703125 -9.234375 C 5.203125 -9.503906 5.8125 -9.640625 6.53125 -9.640625 C 7.25 -9.640625 7.816406 -9.484375 8.234375 -9.171875 C 8.660156 -8.867188 8.96875 -8.46875 9.15625 -7.96875 C 9.351562 -7.476562 9.453125 -6.945312 9.453125 -6.375 Z M 9.453125 0 "/></g></g></g><g fill="#000000" fill-opacity="1"><g transform="translate(57.503905, 41.583033)"><g/></g></g><g fill="#ffffff" fill-opacity="1"><g transform="translate(61.054686, 41.583033)"><g><path d="M 1 -13.859375 L 5.546875 -13.859375 C 6.085938 -13.859375 6.617188 -13.804688 7.140625 -13.703125 C 7.671875 -13.609375 8.148438 -13.425781 8.578125 -13.15625 C 9.015625 -12.882812 9.359375 -12.5 9.609375 -12 C 9.867188 -11.5 10 -10.835938 10 -10.015625 L 10 -9.671875 C 10 -9.035156 9.875 -8.515625 9.625 -8.109375 C 9.375 -7.710938 9.050781 -7.394531 8.65625 -7.15625 C 9.144531 -6.914062 9.550781 -6.570312 9.875 -6.125 C 10.195312 -5.675781 10.359375 -5.078125 10.359375 -4.328125 L 10.359375 -3.984375 C 10.359375 -3.140625 10.222656 -2.453125 9.953125 -1.921875 C 9.679688 -1.398438 9.316406 -1 8.859375 -0.71875 C 8.398438 -0.4375 7.894531 -0.242188 7.34375 -0.140625 C 6.789062 -0.046875 6.238281 0 5.6875 0 L 1 0 Z M 5.78125 -5.828125 L 3.875 -5.828125 L 3.875 -2.484375 L 5.78125 -2.484375 C 6.050781 -2.484375 6.3125 -2.523438 6.5625 -2.609375 C 6.820312 -2.703125 7.03125 -2.867188 7.1875 -3.109375 C 7.351562 -3.347656 7.4375 -3.675781 7.4375 -4.09375 L 7.4375 -4.25 C 7.4375 -4.675781 7.351562 -5 7.1875 -5.21875 C 7.03125 -5.445312 6.820312 -5.601562 6.5625 -5.6875 C 6.3125 -5.78125 6.050781 -5.828125 5.78125 -5.828125 Z M 5.53125 -11.375 L 3.875 -11.375 L 3.875 -8.328125 L 5.53125 -8.328125 C 5.769531 -8.328125 6.007812 -8.363281 6.25 -8.4375 C 6.488281 -8.519531 6.6875 -8.660156 6.84375 -8.859375 C 7.007812 -9.066406 7.09375 -9.359375 7.09375 -9.734375 L 7.09375 -9.96875 C 7.09375 -10.34375 7.007812 -10.628906 6.84375 -10.828125 C 6.6875 -11.035156 6.488281 -11.175781 6.25 -11.25 C 6.007812 -11.332031 5.769531 -11.375 5.53125 -11.375 Z M 5.53125 -11.375 "/></g></g></g><g fill="#ffffff" fill-opacity="1"><g transform="translate(72.257398, 41.583033)"><g><path d="M 3.765625 -14.21875 L 3.765625 -8.515625 C 4.078125 -8.859375 4.457031 -9.128906 4.90625 -9.328125 C 5.363281 -9.535156 5.90625 -9.640625 6.53125 -9.640625 C 7.25 -9.640625 7.816406 -9.484375 8.234375 -9.171875 C 8.660156 -8.867188 8.96875 -8.46875 9.15625 -7.96875 C 9.351562 -7.476562 9.453125 -6.945312 9.453125 -6.375 L 9.453125 0 L 6.65625 0 L 6.65625 -5.921875 C 6.65625 -6.265625 6.566406 -6.566406 6.390625 -6.828125 C 6.222656 -7.097656 5.898438 -7.234375 5.421875 -7.234375 C 4.984375 -7.234375 4.625 -7.125 4.34375 -6.90625 C 4.0625 -6.695312 3.867188 -6.507812 3.765625 -6.34375 L 3.765625 0 L 0.953125 0 L 0.953125 -14.21875 Z M 3.765625 -14.21875 "/></g></g></g><g fill="#ffffff" fill-opacity="1"><g transform="translate(82.554653, 41.583033)"><g><path d="M 6.53125 0 L 6.359375 -0.984375 C 6.023438 -0.617188 5.613281 -0.320312 5.125 -0.09375 C 4.644531 0.125 4.070312 0.234375 3.40625 0.234375 C 2.707031 0.234375 2.144531 0.101562 1.71875 -0.15625 C 1.289062 -0.414062 0.984375 -0.757812 0.796875 -1.1875 C 0.617188 -1.625 0.53125 -2.09375 0.53125 -2.59375 L 0.53125 -2.765625 C 0.53125 -3.453125 0.675781 -4 0.96875 -4.40625 C 1.257812 -4.8125 1.660156 -5.117188 2.171875 -5.328125 C 2.679688 -5.546875 3.257812 -5.703125 3.90625 -5.796875 L 6.078125 -6.125 C 6.066406 -6.59375 5.972656 -6.941406 5.796875 -7.171875 C 5.617188 -7.398438 5.285156 -7.515625 4.796875 -7.515625 C 4.285156 -7.515625 3.945312 -7.390625 3.78125 -7.140625 C 3.613281 -6.890625 3.53125 -6.613281 3.53125 -6.3125 L 0.890625 -6.3125 L 0.890625 -6.46875 C 0.890625 -7.007812 1.003906 -7.519531 1.234375 -8 C 1.472656 -8.488281 1.882812 -8.882812 2.46875 -9.1875 C 3.050781 -9.488281 3.859375 -9.640625 4.890625 -9.640625 C 5.921875 -9.640625 6.722656 -9.5 7.296875 -9.21875 C 7.878906 -8.9375 8.285156 -8.523438 8.515625 -7.984375 C 8.753906 -7.453125 8.875 -6.8125 8.875 -6.0625 L 8.875 -2.671875 L 9.0625 0 Z M 4.4375 -2.046875 C 4.84375 -2.046875 5.175781 -2.125 5.4375 -2.28125 C 5.707031 -2.4375 5.921875 -2.59375 6.078125 -2.75 L 6.078125 -4.484375 L 4.484375 -4.234375 C 4.035156 -4.160156 3.726562 -4.023438 3.5625 -3.828125 C 3.40625 -3.628906 3.328125 -3.390625 3.328125 -3.109375 L 3.328125 -3 C 3.328125 -2.757812 3.410156 -2.539062 3.578125 -2.34375 C 3.753906 -2.144531 4.039062 -2.046875 4.4375 -2.046875 Z M 4.4375 -2.046875 "/></g></g></g><g fill="#ffffff" fill-opacity="1"><g transform="translate(92.30154, 41.583033)"><g><path d="M 4.6875 -1.90625 C 5.132812 -1.90625 5.457031 -1.992188 5.65625 -2.171875 C 5.851562 -2.347656 5.953125 -2.566406 5.953125 -2.828125 C 5.953125 -3.117188 5.859375 -3.332031 5.671875 -3.46875 C 5.484375 -3.613281 5.109375 -3.710938 4.546875 -3.765625 C 3.222656 -3.867188 2.253906 -4.113281 1.640625 -4.5 C 1.035156 -4.882812 0.734375 -5.519531 0.734375 -6.40625 L 0.734375 -6.578125 C 0.734375 -7.296875 0.90625 -7.878906 1.25 -8.328125 C 1.601562 -8.773438 2.078125 -9.101562 2.671875 -9.3125 C 3.273438 -9.53125 3.945312 -9.640625 4.6875 -9.640625 C 6.070312 -9.640625 7.078125 -9.351562 7.703125 -8.78125 C 8.335938 -8.21875 8.65625 -7.425781 8.65625 -6.40625 L 8.65625 -6.328125 L 5.890625 -6.328125 C 5.890625 -6.703125 5.796875 -6.992188 5.609375 -7.203125 C 5.421875 -7.410156 5.113281 -7.515625 4.6875 -7.515625 C 4.300781 -7.515625 4.003906 -7.4375 3.796875 -7.28125 C 3.597656 -7.125 3.5 -6.914062 3.5 -6.65625 C 3.5 -6.375 3.585938 -6.164062 3.765625 -6.03125 C 3.941406 -5.894531 4.300781 -5.800781 4.84375 -5.75 C 5.644531 -5.695312 6.335938 -5.585938 6.921875 -5.421875 C 7.503906 -5.253906 7.957031 -4.988281 8.28125 -4.625 C 8.613281 -4.269531 8.78125 -3.757812 8.78125 -3.09375 L 8.78125 -2.9375 C 8.78125 -1.957031 8.4375 -1.179688 7.75 -0.609375 C 7.070312 -0.046875 6.050781 0.234375 4.6875 0.234375 C 3.3125 0.234375 2.289062 -0.0546875 1.625 -0.640625 C 0.957031 -1.234375 0.625 -1.984375 0.625 -2.890625 L 0.625 -2.984375 L 3.40625 -2.984375 C 3.40625 -2.671875 3.5 -2.410156 3.6875 -2.203125 C 3.882812 -2.003906 4.21875 -1.90625 4.6875 -1.90625 Z M 4.6875 -1.90625 "/></g></g></g><g fill="#ffffff" fill-opacity="1"><g transform="translate(101.675601, 41.583033)"><g><path d="M 3.765625 -14.21875 L 3.765625 -8.515625 C 4.078125 -8.859375 4.457031 -9.128906 4.90625 -9.328125 C 5.363281 -9.535156 5.90625 -9.640625 6.53125 -9.640625 C 7.25 -9.640625 7.816406 -9.484375 8.234375 -9.171875 C 8.660156 -8.867188 8.96875 -8.46875 9.15625 -7.96875 C 9.351562 -7.476562 9.453125 -6.945312 9.453125 -6.375 L 9.453125 0 L 6.65625 0 L 6.65625 -5.921875 C 6.65625 -6.265625 6.566406 -6.566406 6.390625 -6.828125 C 6.222656 -7.097656 5.898438 -7.234375 5.421875 -7.234375 C 4.984375 -7.234375 4.625 -7.125 4.34375 -6.90625 C 4.0625 -6.695312 3.867188 -6.507812 3.765625 -6.34375 L 3.765625 0 L 0.953125 0 L 0.953125 -14.21875 Z M 3.765625 -14.21875 "/></g></g></g><g fill="#ffffff" fill-opacity="1"><g transform="translate(111.972856, 41.583033)"><g><path d="M 0.953125 0 L 0.953125 -9.421875 L 3.765625 -9.421875 L 3.765625 0 Z M 3.84375 -13.71875 L 3.84375 -10.75 L 0.890625 -10.75 L 0.890625 -13.71875 Z M 3.84375 -13.71875 "/></g></g></g><g fill="#ffffff" fill-opacity="1"><g transform="translate(116.695398, 41.583033)"><g><path d="M 4.578125 -9.421875 L 7 -9.421875 L 7 -6.96875 L 4.578125 -6.96875 L 4.578125 -3.578125 C 4.578125 -2.992188 4.703125 -2.613281 4.953125 -2.4375 C 5.203125 -2.269531 5.539062 -2.1875 5.96875 -2.1875 C 6.125 -2.1875 6.289062 -2.203125 6.46875 -2.234375 C 6.65625 -2.265625 6.773438 -2.289062 6.828125 -2.3125 L 6.828125 0 C 6.742188 0.0507812 6.578125 0.101562 6.328125 0.15625 C 6.078125 0.207031 5.738281 0.234375 5.3125 0.234375 C 4.601562 0.234375 3.984375 0.125 3.453125 -0.09375 C 2.929688 -0.320312 2.519531 -0.691406 2.21875 -1.203125 C 1.925781 -1.710938 1.78125 -2.398438 1.78125 -3.265625 L 1.78125 -6.96875 L 0.34375 -6.96875 L 0.34375 -9.421875 L 1.78125 -9.421875 L 1.78125 -12.078125 L 4.578125 -12.078125 Z M 4.578125 -9.421875 "/></g></g></g><g fill="#ffffff" fill-opacity="1"><g transform="translate(124.347329, 41.583033)"><g><path d="M 3.765625 -14.21875 L 3.765625 -8.515625 C 4.078125 -8.859375 4.457031 -9.128906 4.90625 -9.328125 C 5.363281 -9.535156 5.90625 -9.640625 6.53125 -9.640625 C 7.25 -9.640625 7.816406 -9.484375 8.234375 -9.171875 C 8.660156 -8.867188 8.96875 -8.46875 9.15625 -7.96875 C 9.351562 -7.476562 9.453125 -6.945312 9.453125 -6.375 L 9.453125 0 L 6.65625 0 L 6.65625 -5.921875 C 6.65625 -6.265625 6.566406 -6.566406 6.390625 -6.828125 C 6.222656 -7.097656 5.898438 -7.234375 5.421875 -7.234375 C 4.984375 -7.234375 4.625 -7.125 4.34375 -6.90625 C 4.0625 -6.695312 3.867188 -6.507812 3.765625 -6.34375 L 3.765625 0 L 0.953125 0 L 0.953125 -14.21875 Z M 3.765625 -14.21875 "/></g></g></g><g fill="#ffffff" fill-opacity="1"><g transform="translate(134.644584, 41.583033)"><g><path d="M 6.53125 0 L 6.359375 -0.984375 C 6.023438 -0.617188 5.613281 -0.320312 5.125 -0.09375 C 4.644531 0.125 4.070312 0.234375 3.40625 0.234375 C 2.707031 0.234375 2.144531 0.101562 1.71875 -0.15625 C 1.289062 -0.414062 0.984375 -0.757812 0.796875 -1.1875 C 0.617188 -1.625 0.53125 -2.09375 0.53125 -2.59375 L 0.53125 -2.765625 C 0.53125 -3.453125 0.675781 -4 0.96875 -4.40625 C 1.257812 -4.8125 1.660156 -5.117188 2.171875 -5.328125 C 2.679688 -5.546875 3.257812 -5.703125 3.90625 -5.796875 L 6.078125 -6.125 C 6.066406 -6.59375 5.972656 -6.941406 5.796875 -7.171875 C 5.617188 -7.398438 5.285156 -7.515625 4.796875 -7.515625 C 4.285156 -7.515625 3.945312 -7.390625 3.78125 -7.140625 C 3.613281 -6.890625 3.53125 -6.613281 3.53125 -6.3125 L 0.890625 -6.3125 L 0.890625 -6.46875 C 0.890625 -7.007812 1.003906 -7.519531 1.234375 -8 C 1.472656 -8.488281 1.882812 -8.882812 2.46875 -9.1875 C 3.050781 -9.488281 3.859375 -9.640625 4.890625 -9.640625 C 5.921875 -9.640625 6.722656 -9.5 7.296875 -9.21875 C 7.878906 -8.9375 8.285156 -8.523438 8.515625 -7.984375 C 8.753906 -7.453125 8.875 -6.8125 8.875 -6.0625 L 8.875 -2.671875 L 9.0625 0 Z M 4.4375 -2.046875 C 4.84375 -2.046875 5.175781 -2.125 5.4375 -2.28125 C 5.707031 -2.4375 5.921875 -2.59375 6.078125 -2.75 L 6.078125 -4.484375 L 4.484375 -4.234375 C 4.035156 -4.160156 3.726562 -4.023438 3.5625 -3.828125 C 3.40625 -3.628906 3.328125 -3.390625 3.328125 -3.109375 L 3.328125 -3 C 3.328125 -2.757812 3.410156 -2.539062 3.578125 -2.34375 C 3.753906 -2.144531 4.039062 -2.046875 4.4375 -2.046875 Z M 4.4375 -2.046875 "/></g></g></g></svg>