<svg xmlns="http://www.w3.org/2000/svg" xmlns:xlink="http://www.w3.org/1999/xlink" width="480" zoomAndPan="magnify" viewBox="0 0 360 202.499994" height="270" preserveAspectRatio="xMidYMid meet" version="1.0"><defs><g/><clipPath id="41f8920514"><path d="M 5.804688 5.78125 L 354.238281 5.78125 L 354.238281 196.558594 L 5.804688 196.558594 Z M 5.804688 5.78125 " clip-rule="nonzero"/></clipPath><clipPath id="0190ff3328"><path d="M 13.285156 5.78125 L 346.707031 5.78125 C 350.839844 5.78125 354.1875 9.132812 354.1875 13.261719 L 354.1875 188.730469 C 354.1875 192.859375 350.839844 196.210938 346.707031 196.210938 L 13.285156 196.210938 C 9.152344 196.210938 5.804688 192.859375 5.804688 188.730469 L 5.804688 13.261719 C 5.804688 9.132812 9.152344 5.78125 13.285156 5.78125 Z M 13.285156 5.78125 " clip-rule="nonzero"/></clipPath><linearGradient x1="183.974" gradientTransform="matrix(1.26556, 0, 0, 1.26556, 0.0000000851811, -0.000011198)" y1="0.00000884826" x2="183.974" gradientUnits="userSpaceOnUse" y2="201.12144" id="3a5c7588e1"><stop stop-opacity="1" stop-color="rgb(0%, 99.998474%, 96.899414%)" offset="0"/><stop stop-opacity="1" stop-color="rgb(0.0198364%, 99.789429%, 96.760559%)" offset="0.00390625"/><stop stop-opacity="1" stop-color="rgb(0.0396729%, 99.580383%, 96.62323%)" offset="0.0078125"/><stop stop-opacity="1" stop-color="rgb(0.0595093%, 99.369812%, 96.484375%)" offset="0.0117187"/><stop stop-opacity="1" stop-color="rgb(0.0793457%, 99.160767%, 96.347046%)" offset="0.015625"/><stop stop-opacity="1" stop-color="rgb(0.0991821%, 98.950195%, 96.209717%)" offset="0.0195312"/><stop stop-opacity="1" stop-color="rgb(0.119019%, 98.74115%, 96.072388%)" offset="0.0234375"/><stop stop-opacity="1" stop-color="rgb(0.138855%, 98.530579%, 95.933533%)" offset="0.0273438"/><stop stop-opacity="1" stop-color="rgb(0.158691%, 98.321533%, 95.796204%)" offset="0.03125"/><stop stop-opacity="1" stop-color="rgb(0.178528%, 98.110962%, 95.657349%)" offset="0.0351563"/><stop stop-opacity="1" stop-color="rgb(0.198364%, 97.901917%, 95.52002%)" offset="0.0390625"/><stop stop-opacity="1" stop-color="rgb(0.218201%, 97.691345%, 95.381165%)" offset="0.0429688"/><stop stop-opacity="1" stop-color="rgb(0.238037%, 97.4823%, 95.243835%)" offset="0.046875"/><stop stop-opacity="1" stop-color="rgb(0.257874%, 97.271729%, 95.106506%)" offset="0.0507812"/><stop stop-opacity="1" stop-color="rgb(0.27771%, 97.062683%, 94.969177%)" offset="0.0546875"/><stop stop-opacity="1" stop-color="rgb(0.297546%, 96.852112%, 94.830322%)" offset="0.0585937"/><stop stop-opacity="1" stop-color="rgb(0.317383%, 96.643066%, 94.692993%)" offset="0.0625"/><stop stop-opacity="1" stop-color="rgb(0.337219%, 96.432495%, 94.554138%)" offset="0.0664062"/><stop stop-opacity="1" stop-color="rgb(0.358582%, 96.22345%, 94.416809%)" offset="0.0703125"/><stop stop-opacity="1" stop-color="rgb(0.378418%, 96.012878%, 94.27948%)" offset="0.0742188"/><stop stop-opacity="1" stop-color="rgb(0.398254%, 95.803833%, 94.142151%)" offset="0.078125"/><stop stop-opacity="1" stop-color="rgb(0.418091%, 95.593262%, 94.003296%)" offset="0.0820312"/><stop stop-opacity="1" stop-color="rgb(0.437927%, 95.384216%, 93.865967%)" offset="0.0859375"/><stop stop-opacity="1" stop-color="rgb(0.457764%, 95.173645%, 93.727112%)" offset="0.0898437"/><stop stop-opacity="1" stop-color="rgb(0.4776%, 94.9646%, 93.589783%)" offset="0.09375"/><stop stop-opacity="1" stop-color="rgb(0.497437%, 94.754028%, 93.450928%)" offset="0.0976562"/><stop stop-opacity="1" stop-color="rgb(0.517273%, 94.544983%, 93.313599%)" offset="0.101562"/><stop stop-opacity="1" stop-color="rgb(0.537109%, 94.334412%, 93.17627%)" offset="0.105469"/><stop stop-opacity="1" stop-color="rgb(0.556946%, 94.125366%, 93.03894%)" offset="0.109375"/><stop stop-opacity="1" stop-color="rgb(0.576782%, 93.914795%, 92.900085%)" offset="0.113281"/><stop stop-opacity="1" stop-color="rgb(0.596619%, 93.70575%, 92.762756%)" offset="0.117187"/><stop stop-opacity="1" stop-color="rgb(0.616455%, 93.495178%, 92.623901%)" offset="0.121094"/><stop stop-opacity="1" stop-color="rgb(0.636292%, 93.286133%, 92.486572%)" offset="0.125"/><stop stop-opacity="1" stop-color="rgb(0.656128%, 93.075562%, 92.347717%)" offset="0.128906"/><stop stop-opacity="1" stop-color="rgb(0.675964%, 92.866516%, 92.210388%)" offset="0.132812"/><stop stop-opacity="1" stop-color="rgb(0.695801%, 92.655945%, 92.073059%)" offset="0.136719"/><stop stop-opacity="1" stop-color="rgb(0.717163%, 92.446899%, 91.93573%)" offset="0.140625"/><stop stop-opacity="1" stop-color="rgb(0.737%, 92.237854%, 91.796875%)" offset="0.144531"/><stop stop-opacity="1" stop-color="rgb(0.756836%, 92.028809%, 91.659546%)" offset="0.148437"/><stop stop-opacity="1" stop-color="rgb(0.776672%, 91.818237%, 91.520691%)" offset="0.152344"/><stop stop-opacity="1" stop-color="rgb(0.796509%, 91.609192%, 91.383362%)" offset="0.15625"/><stop stop-opacity="1" stop-color="rgb(0.816345%, 91.398621%, 91.244507%)" offset="0.160156"/><stop stop-opacity="1" stop-color="rgb(0.836182%, 91.189575%, 91.107178%)" offset="0.164062"/><stop stop-opacity="1" stop-color="rgb(0.856018%, 90.979004%, 90.969849%)" offset="0.167969"/><stop stop-opacity="1" stop-color="rgb(0.875854%, 90.769958%, 90.83252%)" offset="0.171875"/><stop stop-opacity="1" stop-color="rgb(0.895691%, 90.559387%, 90.693665%)" offset="0.175781"/><stop stop-opacity="1" stop-color="rgb(0.915527%, 90.350342%, 90.556335%)" offset="0.179687"/><stop stop-opacity="1" stop-color="rgb(0.935364%, 90.139771%, 90.41748%)" offset="0.183594"/><stop stop-opacity="1" stop-color="rgb(0.9552%, 89.930725%, 90.280151%)" offset="0.1875"/><stop stop-opacity="1" stop-color="rgb(0.975037%, 89.720154%, 90.141296%)" offset="0.191406"/><stop stop-opacity="1" stop-color="rgb(0.994873%, 89.511108%, 90.003967%)" offset="0.195312"/><stop stop-opacity="1" stop-color="rgb(1.014709%, 89.300537%, 89.866638%)" offset="0.199219"/><stop stop-opacity="1" stop-color="rgb(1.034546%, 89.091492%, 89.729309%)" offset="0.203125"/><stop stop-opacity="1" stop-color="rgb(1.054382%, 88.88092%, 89.590454%)" offset="0.207031"/><stop stop-opacity="1" stop-color="rgb(1.075745%, 88.671875%, 89.453125%)" offset="0.210938"/><stop stop-opacity="1" stop-color="rgb(1.095581%, 88.461304%, 89.31427%)" offset="0.214844"/><stop stop-opacity="1" stop-color="rgb(1.115417%, 88.252258%, 89.176941%)" offset="0.21875"/><stop stop-opacity="1" stop-color="rgb(1.135254%, 88.041687%, 89.039612%)" offset="0.222656"/><stop stop-opacity="1" stop-color="rgb(1.15509%, 87.832642%, 88.902283%)" offset="0.226562"/><stop stop-opacity="1" stop-color="rgb(1.174927%, 87.62207%, 88.763428%)" offset="0.230469"/><stop stop-opacity="1" stop-color="rgb(1.194763%, 87.413025%, 88.626099%)" offset="0.234375"/><stop stop-opacity="1" stop-color="rgb(1.2146%, 87.202454%, 88.487244%)" offset="0.238281"/><stop stop-opacity="1" stop-color="rgb(1.234436%, 86.993408%, 88.349915%)" offset="0.242187"/><stop stop-opacity="1" stop-color="rgb(1.254272%, 86.782837%, 88.21106%)" offset="0.246094"/><stop stop-opacity="1" stop-color="rgb(1.274109%, 86.573792%, 88.07373%)" offset="0.25"/><stop stop-opacity="1" stop-color="rgb(1.293945%, 86.36322%, 87.936401%)" offset="0.253906"/><stop stop-opacity="1" stop-color="rgb(1.313782%, 86.154175%, 87.799072%)" offset="0.257812"/><stop stop-opacity="1" stop-color="rgb(1.333618%, 85.943604%, 87.660217%)" offset="0.261719"/><stop stop-opacity="1" stop-color="rgb(1.353455%, 85.734558%, 87.522888%)" offset="0.265625"/><stop stop-opacity="1" stop-color="rgb(1.373291%, 85.523987%, 87.384033%)" offset="0.269531"/><stop stop-opacity="1" stop-color="rgb(1.393127%, 85.314941%, 87.246704%)" offset="0.273438"/><stop stop-opacity="1" stop-color="rgb(1.412964%, 85.10437%, 87.107849%)" offset="0.277344"/><stop stop-opacity="1" stop-color="rgb(1.434326%, 84.895325%, 86.97052%)" offset="0.28125"/><stop stop-opacity="1" stop-color="rgb(1.454163%, 84.686279%, 86.833191%)" offset="0.285156"/><stop stop-opacity="1" stop-color="rgb(1.473999%, 84.477234%, 86.695862%)" offset="0.289062"/><stop stop-opacity="1" stop-color="rgb(1.493835%, 84.266663%, 86.557007%)" offset="0.292969"/><stop stop-opacity="1" stop-color="rgb(1.513672%, 84.057617%, 86.419678%)" offset="0.296875"/><stop stop-opacity="1" stop-color="rgb(1.533508%, 83.847046%, 86.280823%)" offset="0.300781"/><stop stop-opacity="1" stop-color="rgb(1.553345%, 83.638%, 86.143494%)" offset="0.304688"/><stop stop-opacity="1" stop-color="rgb(1.573181%, 83.427429%, 86.004639%)" offset="0.308594"/><stop stop-opacity="1" stop-color="rgb(1.593018%, 83.218384%, 85.86731%)" offset="0.3125"/><stop stop-opacity="1" stop-color="rgb(1.612854%, 83.007812%, 85.72998%)" offset="0.316406"/><stop stop-opacity="1" stop-color="rgb(1.63269%, 82.798767%, 85.592651%)" offset="0.320312"/><stop stop-opacity="1" stop-color="rgb(1.652527%, 82.588196%, 85.453796%)" offset="0.324219"/><stop stop-opacity="1" stop-color="rgb(1.672363%, 82.37915%, 85.316467%)" offset="0.328125"/><stop stop-opacity="1" stop-color="rgb(1.6922%, 82.168579%, 85.177612%)" offset="0.332031"/><stop stop-opacity="1" stop-color="rgb(1.712036%, 81.959534%, 85.040283%)" offset="0.335938"/><stop stop-opacity="1" stop-color="rgb(1.731873%, 81.748962%, 84.901428%)" offset="0.339844"/><stop stop-opacity="1" stop-color="rgb(1.751709%, 81.539917%, 84.764099%)" offset="0.34375"/><stop stop-opacity="1" stop-color="rgb(1.771545%, 81.329346%, 84.62677%)" offset="0.347656"/><stop stop-opacity="1" stop-color="rgb(1.792908%, 81.1203%, 84.489441%)" offset="0.351562"/><stop stop-opacity="1" stop-color="rgb(1.812744%, 80.909729%, 84.350586%)" offset="0.355469"/><stop stop-opacity="1" stop-color="rgb(1.832581%, 80.700684%, 84.213257%)" offset="0.359375"/><stop stop-opacity="1" stop-color="rgb(1.852417%, 80.490112%, 84.074402%)" offset="0.363281"/><stop stop-opacity="1" stop-color="rgb(1.872253%, 80.281067%, 83.937073%)" offset="0.367188"/><stop stop-opacity="1" stop-color="rgb(1.89209%, 80.070496%, 83.799744%)" offset="0.371094"/><stop stop-opacity="1" stop-color="rgb(1.911926%, 79.86145%, 83.662415%)" offset="0.375"/><stop stop-opacity="1" stop-color="rgb(1.931763%, 79.650879%, 83.52356%)" offset="0.378906"/><stop stop-opacity="1" stop-color="rgb(1.951599%, 79.441833%, 83.38623%)" offset="0.382812"/><stop stop-opacity="1" stop-color="rgb(1.971436%, 79.231262%, 83.247375%)" offset="0.386719"/><stop stop-opacity="1" stop-color="rgb(1.991272%, 79.022217%, 83.110046%)" offset="0.390625"/><stop stop-opacity="1" stop-color="rgb(2.011108%, 78.811646%, 82.971191%)" offset="0.394531"/><stop stop-opacity="1" stop-color="rgb(2.030945%, 78.6026%, 82.833862%)" offset="0.398438"/><stop stop-opacity="1" stop-color="rgb(2.050781%, 78.392029%, 82.696533%)" offset="0.402344"/><stop stop-opacity="1" stop-color="rgb(2.070618%, 78.182983%, 82.559204%)" offset="0.40625"/><stop stop-opacity="1" stop-color="rgb(2.090454%, 77.972412%, 82.420349%)" offset="0.410156"/><stop stop-opacity="1" stop-color="rgb(2.110291%, 77.763367%, 82.28302%)" offset="0.414062"/><stop stop-opacity="1" stop-color="rgb(2.130127%, 77.552795%, 82.144165%)" offset="0.417969"/><stop stop-opacity="1" stop-color="rgb(2.151489%, 77.34375%, 82.006836%)" offset="0.421875"/><stop stop-opacity="1" stop-color="rgb(2.171326%, 77.134705%, 81.867981%)" offset="0.425781"/><stop stop-opacity="1" stop-color="rgb(2.191162%, 76.925659%, 81.730652%)" offset="0.429688"/><stop stop-opacity="1" stop-color="rgb(2.210999%, 76.715088%, 81.593323%)" offset="0.433594"/><stop stop-opacity="1" stop-color="rgb(2.230835%, 76.506042%, 81.455994%)" offset="0.4375"/><stop stop-opacity="1" stop-color="rgb(2.250671%, 76.295471%, 81.317139%)" offset="0.441406"/><stop stop-opacity="1" stop-color="rgb(2.270508%, 76.086426%, 81.17981%)" offset="0.445312"/><stop stop-opacity="1" stop-color="rgb(2.290344%, 75.875854%, 81.040955%)" offset="0.449219"/><stop stop-opacity="1" stop-color="rgb(2.310181%, 75.666809%, 80.903625%)" offset="0.453125"/><stop stop-opacity="1" stop-color="rgb(2.330017%, 75.456238%, 80.764771%)" offset="0.457031"/><stop stop-opacity="1" stop-color="rgb(2.349854%, 75.247192%, 80.627441%)" offset="0.460938"/><stop stop-opacity="1" stop-color="rgb(2.36969%, 75.036621%, 80.490112%)" offset="0.464844"/><stop stop-opacity="1" stop-color="rgb(2.389526%, 74.827576%, 80.352783%)" offset="0.46875"/><stop stop-opacity="1" stop-color="rgb(2.409363%, 74.617004%, 80.213928%)" offset="0.472656"/><stop stop-opacity="1" stop-color="rgb(2.429199%, 74.407959%, 80.076599%)" offset="0.476562"/><stop stop-opacity="1" stop-color="rgb(2.449036%, 74.197388%, 79.937744%)" offset="0.480469"/><stop stop-opacity="1" stop-color="rgb(2.468872%, 73.988342%, 79.800415%)" offset="0.484375"/><stop stop-opacity="1" stop-color="rgb(2.488708%, 73.777771%, 79.66156%)" offset="0.488281"/><stop stop-opacity="1" stop-color="rgb(2.510071%, 73.568726%, 79.524231%)" offset="0.492188"/><stop stop-opacity="1" stop-color="rgb(2.529907%, 73.358154%, 79.386902%)" offset="0.496094"/><stop stop-opacity="1" stop-color="rgb(2.549744%, 73.149109%, 79.249573%)" offset="0.5"/><stop stop-opacity="1" stop-color="rgb(2.56958%, 72.938538%, 79.110718%)" offset="0.503906"/><stop stop-opacity="1" stop-color="rgb(2.589417%, 72.729492%, 78.973389%)" offset="0.507812"/><stop stop-opacity="1" stop-color="rgb(2.609253%, 72.518921%, 78.834534%)" offset="0.511719"/><stop stop-opacity="1" stop-color="rgb(2.629089%, 72.309875%, 78.697205%)" offset="0.515625"/><stop stop-opacity="1" stop-color="rgb(2.648926%, 72.099304%, 78.559875%)" offset="0.519531"/><stop stop-opacity="1" stop-color="rgb(2.668762%, 71.890259%, 78.422546%)" offset="0.523437"/><stop stop-opacity="1" stop-color="rgb(2.688599%, 71.679688%, 78.283691%)" offset="0.527344"/><stop stop-opacity="1" stop-color="rgb(2.708435%, 71.470642%, 78.146362%)" offset="0.53125"/><stop stop-opacity="1" stop-color="rgb(2.728271%, 71.260071%, 78.007507%)" offset="0.535156"/><stop stop-opacity="1" stop-color="rgb(2.748108%, 71.051025%, 77.870178%)" offset="0.539062"/><stop stop-opacity="1" stop-color="rgb(2.767944%, 70.840454%, 77.731323%)" offset="0.542969"/><stop stop-opacity="1" stop-color="rgb(2.787781%, 70.631409%, 77.593994%)" offset="0.546875"/><stop stop-opacity="1" stop-color="rgb(2.807617%, 70.420837%, 77.456665%)" offset="0.550781"/><stop stop-opacity="1" stop-color="rgb(2.827454%, 70.211792%, 77.319336%)" offset="0.554687"/><stop stop-opacity="1" stop-color="rgb(2.84729%, 70.001221%, 77.180481%)" offset="0.558594"/><stop stop-opacity="1" stop-color="rgb(2.868652%, 69.792175%, 77.043152%)" offset="0.5625"/><stop stop-opacity="1" stop-color="rgb(2.888489%, 69.58313%, 76.904297%)" offset="0.566406"/><stop stop-opacity="1" stop-color="rgb(2.908325%, 69.374084%, 76.766968%)" offset="0.570312"/><stop stop-opacity="1" stop-color="rgb(2.928162%, 69.163513%, 76.628113%)" offset="0.574219"/><stop stop-opacity="1" stop-color="rgb(2.947998%, 68.954468%, 76.490784%)" offset="0.578125"/><stop stop-opacity="1" stop-color="rgb(2.967834%, 68.743896%, 76.353455%)" offset="0.582031"/><stop stop-opacity="1" stop-color="rgb(2.987671%, 68.534851%, 76.216125%)" offset="0.585937"/><stop stop-opacity="1" stop-color="rgb(3.007507%, 68.32428%, 76.077271%)" offset="0.589844"/><stop stop-opacity="1" stop-color="rgb(3.027344%, 68.115234%, 75.939941%)" offset="0.59375"/><stop stop-opacity="1" stop-color="rgb(3.04718%, 67.904663%, 75.801086%)" offset="0.597656"/><stop stop-opacity="1" stop-color="rgb(3.067017%, 67.695618%, 75.663757%)" offset="0.601562"/><stop stop-opacity="1" stop-color="rgb(3.086853%, 67.485046%, 75.524902%)" offset="0.605469"/><stop stop-opacity="1" stop-color="rgb(3.106689%, 67.276001%, 75.387573%)" offset="0.609375"/><stop stop-opacity="1" stop-color="rgb(3.126526%, 67.06543%, 75.250244%)" offset="0.613281"/><stop stop-opacity="1" stop-color="rgb(3.146362%, 66.856384%, 75.112915%)" offset="0.617187"/><stop stop-opacity="1" stop-color="rgb(3.166199%, 66.645813%, 74.97406%)" offset="0.621094"/><stop stop-opacity="1" stop-color="rgb(3.186035%, 66.436768%, 74.836731%)" offset="0.625"/><stop stop-opacity="1" stop-color="rgb(3.205872%, 66.226196%, 74.697876%)" offset="0.628906"/><stop stop-opacity="1" stop-color="rgb(3.227234%, 66.017151%, 74.560547%)" offset="0.632812"/><stop stop-opacity="1" stop-color="rgb(3.24707%, 65.80658%, 74.421692%)" offset="0.636719"/><stop stop-opacity="1" stop-color="rgb(3.266907%, 65.597534%, 74.284363%)" offset="0.640625"/><stop stop-opacity="1" stop-color="rgb(3.286743%, 65.386963%, 74.147034%)" offset="0.644531"/><stop stop-opacity="1" stop-color="rgb(3.30658%, 65.177917%, 74.009705%)" offset="0.648437"/><stop stop-opacity="1" stop-color="rgb(3.326416%, 64.967346%, 73.87085%)" offset="0.652344"/><stop stop-opacity="1" stop-color="rgb(3.346252%, 64.758301%, 73.733521%)" offset="0.65625"/><stop stop-opacity="1" stop-color="rgb(3.366089%, 64.547729%, 73.594666%)" offset="0.660156"/><stop stop-opacity="1" stop-color="rgb(3.385925%, 64.338684%, 73.457336%)" offset="0.664062"/><stop stop-opacity="1" stop-color="rgb(3.405762%, 64.128113%, 73.320007%)" offset="0.667969"/><stop stop-opacity="1" stop-color="rgb(3.425598%, 63.919067%, 73.182678%)" offset="0.671875"/><stop stop-opacity="1" stop-color="rgb(3.445435%, 63.708496%, 73.043823%)" offset="0.675781"/><stop stop-opacity="1" stop-color="rgb(3.465271%, 63.499451%, 72.906494%)" offset="0.679687"/><stop stop-opacity="1" stop-color="rgb(3.485107%, 63.288879%, 72.767639%)" offset="0.683594"/><stop stop-opacity="1" stop-color="rgb(3.504944%, 63.079834%, 72.63031%)" offset="0.6875"/><stop stop-opacity="1" stop-color="rgb(3.52478%, 62.869263%, 72.491455%)" offset="0.691406"/><stop stop-opacity="1" stop-color="rgb(3.544617%, 62.660217%, 72.354126%)" offset="0.695312"/><stop stop-opacity="1" stop-color="rgb(3.564453%, 62.449646%, 72.216797%)" offset="0.699219"/><stop stop-opacity="1" stop-color="rgb(3.585815%, 62.240601%, 72.079468%)" offset="0.703125"/><stop stop-opacity="1" stop-color="rgb(3.605652%, 62.031555%, 71.940613%)" offset="0.707031"/><stop stop-opacity="1" stop-color="rgb(3.625488%, 61.82251%, 71.803284%)" offset="0.710937"/><stop stop-opacity="1" stop-color="rgb(3.645325%, 61.611938%, 71.664429%)" offset="0.714844"/><stop stop-opacity="1" stop-color="rgb(3.665161%, 61.402893%, 71.5271%)" offset="0.71875"/><stop stop-opacity="1" stop-color="rgb(3.684998%, 61.192322%, 71.388245%)" offset="0.722656"/><stop stop-opacity="1" stop-color="rgb(3.704834%, 60.983276%, 71.250916%)" offset="0.726562"/><stop stop-opacity="1" stop-color="rgb(3.72467%, 60.772705%, 71.113586%)" offset="0.730469"/><stop stop-opacity="1" stop-color="rgb(3.744507%, 60.56366%, 70.976257%)" offset="0.734375"/><stop stop-opacity="1" stop-color="rgb(3.764343%, 60.353088%, 70.837402%)" offset="0.738281"/><stop stop-opacity="1" stop-color="rgb(3.78418%, 60.144043%, 70.700073%)" offset="0.742187"/><stop stop-opacity="1" stop-color="rgb(3.804016%, 59.933472%, 70.561218%)" offset="0.746094"/><stop stop-opacity="1" stop-color="rgb(3.823853%, 59.724426%, 70.423889%)" offset="0.75"/><stop stop-opacity="1" stop-color="rgb(3.843689%, 59.513855%, 70.285034%)" offset="0.753906"/><stop stop-opacity="1" stop-color="rgb(3.863525%, 59.30481%, 70.147705%)" offset="0.757812"/><stop stop-opacity="1" stop-color="rgb(3.883362%, 59.094238%, 70.010376%)" offset="0.761719"/><stop stop-opacity="1" stop-color="rgb(3.903198%, 58.885193%, 69.873047%)" offset="0.765625"/><stop stop-opacity="1" stop-color="rgb(3.923035%, 58.674622%, 69.734192%)" offset="0.769531"/><stop stop-opacity="1" stop-color="rgb(3.944397%, 58.465576%, 69.596863%)" offset="0.773437"/><stop stop-opacity="1" stop-color="rgb(3.964233%, 58.255005%, 69.458008%)" offset="0.777344"/><stop stop-opacity="1" stop-color="rgb(3.98407%, 58.045959%, 69.320679%)" offset="0.78125"/><stop stop-opacity="1" stop-color="rgb(4.003906%, 57.835388%, 69.18335%)" offset="0.785156"/><stop stop-opacity="1" stop-color="rgb(4.023743%, 57.626343%, 69.046021%)" offset="0.789062"/><stop stop-opacity="1" stop-color="rgb(4.043579%, 57.415771%, 68.907166%)" offset="0.792969"/><stop stop-opacity="1" stop-color="rgb(4.063416%, 57.206726%, 68.769836%)" offset="0.796875"/><stop stop-opacity="1" stop-color="rgb(4.083252%, 56.996155%, 68.630981%)" offset="0.800781"/><stop stop-opacity="1" stop-color="rgb(4.103088%, 56.787109%, 68.493652%)" offset="0.804688"/><stop stop-opacity="1" stop-color="rgb(4.122925%, 56.576538%, 68.354797%)" offset="0.808594"/><stop stop-opacity="1" stop-color="rgb(4.142761%, 56.367493%, 68.217468%)" offset="0.8125"/><stop stop-opacity="1" stop-color="rgb(4.162598%, 56.156921%, 68.080139%)" offset="0.816406"/><stop stop-opacity="1" stop-color="rgb(4.182434%, 55.947876%, 67.94281%)" offset="0.820312"/><stop stop-opacity="1" stop-color="rgb(4.202271%, 55.737305%, 67.803955%)" offset="0.824219"/><stop stop-opacity="1" stop-color="rgb(4.222107%, 55.528259%, 67.666626%)" offset="0.828125"/><stop stop-opacity="1" stop-color="rgb(4.241943%, 55.317688%, 67.527771%)" offset="0.832031"/><stop stop-opacity="1" stop-color="rgb(4.26178%, 55.108643%, 67.390442%)" offset="0.835937"/><stop stop-opacity="1" stop-color="rgb(4.281616%, 54.898071%, 67.251587%)" offset="0.839844"/><stop stop-opacity="1" stop-color="rgb(4.302979%, 54.689026%, 67.114258%)" offset="0.84375"/><stop stop-opacity="1" stop-color="rgb(4.322815%, 54.47998%, 66.976929%)" offset="0.847656"/><stop stop-opacity="1" stop-color="rgb(4.342651%, 54.270935%, 66.8396%)" offset="0.851562"/><stop stop-opacity="1" stop-color="rgb(4.362488%, 54.060364%, 66.700745%)" offset="0.855469"/><stop stop-opacity="1" stop-color="rgb(4.382324%, 53.851318%, 66.563416%)" offset="0.859375"/><stop stop-opacity="1" stop-color="rgb(4.402161%, 53.640747%, 66.424561%)" offset="0.863281"/><stop stop-opacity="1" stop-color="rgb(4.421997%, 53.431702%, 66.287231%)" offset="0.867188"/><stop stop-opacity="1" stop-color="rgb(4.441833%, 53.22113%, 66.148376%)" offset="0.871094"/><stop stop-opacity="1" stop-color="rgb(4.46167%, 53.012085%, 66.011047%)" offset="0.875"/><stop stop-opacity="1" stop-color="rgb(4.481506%, 52.801514%, 65.873718%)" offset="0.878906"/><stop stop-opacity="1" stop-color="rgb(4.501343%, 52.592468%, 65.736389%)" offset="0.882812"/><stop stop-opacity="1" stop-color="rgb(4.521179%, 52.381897%, 65.597534%)" offset="0.886719"/><stop stop-opacity="1" stop-color="rgb(4.541016%, 52.172852%, 65.460205%)" offset="0.890625"/><stop stop-opacity="1" stop-color="rgb(4.560852%, 51.96228%, 65.32135%)" offset="0.894531"/><stop stop-opacity="1" stop-color="rgb(4.580688%, 51.753235%, 65.184021%)" offset="0.898437"/><stop stop-opacity="1" stop-color="rgb(4.600525%, 51.542664%, 65.045166%)" offset="0.902344"/><stop stop-opacity="1" stop-color="rgb(4.620361%, 51.333618%, 64.907837%)" offset="0.90625"/><stop stop-opacity="1" stop-color="rgb(4.640198%, 51.123047%, 64.770508%)" offset="0.910156"/><stop stop-opacity="1" stop-color="rgb(4.66156%, 50.914001%, 64.633179%)" offset="0.914062"/><stop stop-opacity="1" stop-color="rgb(4.681396%, 50.70343%, 64.494324%)" offset="0.917969"/><stop stop-opacity="1" stop-color="rgb(4.701233%, 50.494385%, 64.356995%)" offset="0.921875"/><stop stop-opacity="1" stop-color="rgb(4.721069%, 50.283813%, 64.21814%)" offset="0.925781"/><stop stop-opacity="1" stop-color="rgb(4.740906%, 50.074768%, 64.080811%)" offset="0.929688"/><stop stop-opacity="1" stop-color="rgb(4.760742%, 49.864197%, 63.943481%)" offset="0.933594"/><stop stop-opacity="1" stop-color="rgb(4.780579%, 49.655151%, 63.806152%)" offset="0.9375"/><stop stop-opacity="1" stop-color="rgb(4.800415%, 49.44458%, 63.667297%)" offset="0.941406"/><stop stop-opacity="1" stop-color="rgb(4.820251%, 49.235535%, 63.529968%)" offset="0.945312"/><stop stop-opacity="1" stop-color="rgb(4.840088%, 49.024963%, 63.391113%)" offset="0.949219"/><stop stop-opacity="1" stop-color="rgb(4.859924%, 48.815918%, 63.253784%)" offset="0.953125"/><stop stop-opacity="1" stop-color="rgb(4.879761%, 48.605347%, 63.114929%)" offset="0.957031"/><stop stop-opacity="1" stop-color="rgb(4.899597%, 48.396301%, 62.9776%)" offset="0.960937"/><stop stop-opacity="1" stop-color="rgb(4.919434%, 48.18573%, 62.840271%)" offset="0.964844"/><stop stop-opacity="1" stop-color="rgb(4.93927%, 47.976685%, 62.702942%)" offset="0.96875"/><stop stop-opacity="1" stop-color="rgb(4.959106%, 47.766113%, 62.564087%)" offset="0.972656"/><stop stop-opacity="1" stop-color="rgb(4.980469%, 47.557068%, 62.426758%)" offset="0.976562"/><stop stop-opacity="1" stop-color="rgb(5.000305%, 47.346497%, 62.287903%)" offset="0.980469"/><stop stop-opacity="1" stop-color="rgb(5.020142%, 47.137451%, 62.150574%)" offset="0.984375"/><stop stop-opacity="1" stop-color="rgb(5.039978%, 46.928406%, 62.011719%)" offset="0.988281"/><stop stop-opacity="1" stop-color="rgb(5.059814%, 46.71936%, 61.87439%)" offset="0.992187"/><stop stop-opacity="1" stop-color="rgb(5.079651%, 46.508789%, 61.737061%)" offset="0.996094"/><stop stop-opacity="1" stop-color="rgb(5.099487%, 46.299744%, 61.599731%)" offset="1"/></linearGradient></defs><g clip-path="url(#41f8920514)"><g clip-path="url(#0190ff3328)"><path stroke-linecap="butt" transform="matrix(0.748153, 0, 0, 0.748153, 5.80338, 5.781613)" fill="none" stroke-linejoin="miter" d="M 10.000334 -0.000484714 L 455.66058 -0.000484714 C 461.184603 -0.000484714 465.659166 4.4793 465.659166 9.998102 L 465.659166 244.534142 C 465.659166 250.052944 461.184603 254.532729 455.66058 254.532729 L 10.000334 254.532729 C 4.476311 254.532729 0.00174734 250.052944 0.00174734 244.534142 L 0.00174734 9.998102 C 0.00174734 4.4793 4.476311 -0.000484714 10.000334 -0.000484714 Z M 10.000334 -0.000484714 " stroke="url(#3a5c7588e1)" stroke-width="8" stroke-miterlimit="4"/></g></g><g fill="#00fff7" fill-opacity="1"><g transform="translate(78.040812, 106.204596)"><g><path d="M 7.421875 -24.6875 L 7.421875 -4.9375 L 15.921875 -4.9375 L 15.921875 0 L 1.796875 0 L 1.796875 -24.6875 Z M 7.421875 -24.6875 "/></g></g></g><g fill="#00fff7" fill-opacity="1"><g transform="translate(94.949045, 106.204596)"><g><path d="M 3.25 -1.8125 C 1.539062 -3.332031 0.6875 -5.28125 0.6875 -7.65625 C 0.6875 -10.03125 1.570312 -11.976562 3.34375 -13.5 C 5.125 -15.03125 7.320312 -15.796875 9.9375 -15.796875 C 12.507812 -15.796875 14.675781 -15.023438 16.4375 -13.484375 C 18.207031 -11.953125 19.09375 -10.007812 19.09375 -7.65625 C 19.09375 -5.300781 18.226562 -3.359375 16.5 -1.828125 C 14.769531 -0.304688 12.582031 0.453125 9.9375 0.453125 C 7.1875 0.453125 4.957031 -0.300781 3.25 -1.8125 Z M 7.34375 -10.265625 C 6.65625 -9.585938 6.3125 -8.71875 6.3125 -7.65625 C 6.3125 -6.601562 6.640625 -5.738281 7.296875 -5.0625 C 7.953125 -4.394531 8.820312 -4.0625 9.90625 -4.0625 C 10.9375 -4.0625 11.785156 -4.398438 12.453125 -5.078125 C 13.128906 -5.765625 13.46875 -6.625 13.46875 -7.65625 C 13.46875 -8.71875 13.125 -9.585938 12.4375 -10.265625 C 11.75 -10.941406 10.90625 -11.28125 9.90625 -11.28125 C 8.882812 -11.28125 8.03125 -10.941406 7.34375 -10.265625 Z M 7.34375 -10.265625 "/></g></g></g><g fill="#00fff7" fill-opacity="1"><g transform="translate(114.73018, 106.204596)"><g><path d="M 1.109375 3.765625 L 5.453125 1.640625 C 6.242188 2.960938 7.628906 3.625 9.609375 3.625 C 10.523438 3.625 11.375 3.328125 12.15625 2.734375 C 12.945312 2.148438 13.34375 1.25 13.34375 0.03125 L 13.34375 -1.109375 C 12.40625 -0.0664062 10.726562 0.453125 8.3125 0.453125 C 6.101562 0.453125 4.28125 -0.328125 2.84375 -1.890625 C 1.40625 -3.460938 0.6875 -5.382812 0.6875 -7.65625 C 0.6875 -9.9375 1.40625 -11.863281 2.84375 -13.4375 C 4.28125 -15.007812 6.101562 -15.796875 8.3125 -15.796875 C 10.289062 -15.796875 11.9375 -15.1875 13.25 -13.96875 L 13.34375 -13.96875 L 13.34375 -15.34375 L 18.640625 -15.34375 L 18.640625 0.421875 C 18.640625 2.910156 17.8125 4.832031 16.15625 6.1875 C 14.5 7.550781 12.316406 8.234375 9.609375 8.234375 C 5.210938 8.234375 2.378906 6.742188 1.109375 3.765625 Z M 7.34375 -10.265625 C 6.65625 -9.585938 6.3125 -8.71875 6.3125 -7.65625 C 6.3125 -6.601562 6.640625 -5.738281 7.296875 -5.0625 C 7.953125 -4.394531 8.820312 -4.0625 9.90625 -4.0625 C 10.9375 -4.0625 11.785156 -4.398438 12.453125 -5.078125 C 13.128906 -5.765625 13.46875 -6.625 13.46875 -7.65625 C 13.46875 -8.71875 13.125 -9.585938 12.4375 -10.265625 C 11.75 -10.941406 10.90625 -11.28125 9.90625 -11.28125 C 8.882812 -11.28125 8.03125 -10.941406 7.34375 -10.265625 Z M 7.34375 -10.265625 "/></g></g></g><g fill="#00fff7" fill-opacity="1"><g transform="translate(135.169693, 106.204596)"><g><path d="M 3.25 -1.8125 C 1.539062 -3.332031 0.6875 -5.28125 0.6875 -7.65625 C 0.6875 -10.03125 1.570312 -11.976562 3.34375 -13.5 C 5.125 -15.03125 7.320312 -15.796875 9.9375 -15.796875 C 12.507812 -15.796875 14.675781 -15.023438 16.4375 -13.484375 C 18.207031 -11.953125 19.09375 -10.007812 19.09375 -7.65625 C 19.09375 -5.300781 18.226562 -3.359375 16.5 -1.828125 C 14.769531 -0.304688 12.582031 0.453125 9.9375 0.453125 C 7.1875 0.453125 4.957031 -0.300781 3.25 -1.8125 Z M 7.34375 -10.265625 C 6.65625 -9.585938 6.3125 -8.71875 6.3125 -7.65625 C 6.3125 -6.601562 6.640625 -5.738281 7.296875 -5.0625 C 7.953125 -4.394531 8.820312 -4.0625 9.90625 -4.0625 C 10.9375 -4.0625 11.785156 -4.398438 12.453125 -5.078125 C 13.128906 -5.765625 13.46875 -6.625 13.46875 -7.65625 C 13.46875 -8.71875 13.125 -9.585938 12.4375 -10.265625 C 11.75 -10.941406 10.90625 -11.28125 9.90625 -11.28125 C 8.882812 -11.28125 8.03125 -10.941406 7.34375 -10.265625 Z M 7.34375 -10.265625 "/></g></g></g><g fill="#00fff7" fill-opacity="1"><g transform="translate(154.950828, 106.204596)"><g/></g></g><g fill="#00fff7" fill-opacity="1"><g transform="translate(163.120643, 106.204596)"><g><path d="M 1.796875 -24.6875 L 8.953125 -24.6875 C 12.378906 -24.6875 15.304688 -23.515625 17.734375 -21.171875 C 20.171875 -18.828125 21.390625 -15.890625 21.390625 -12.359375 C 21.390625 -8.804688 20.175781 -5.859375 17.75 -3.515625 C 15.332031 -1.171875 12.398438 0 8.953125 0 L 1.796875 0 Z M 7.421875 -5.03125 L 8.28125 -5.03125 C 10.34375 -5.03125 12.023438 -5.722656 13.328125 -7.109375 C 14.640625 -8.492188 15.300781 -10.234375 15.3125 -12.328125 C 15.3125 -14.421875 14.660156 -16.164062 13.359375 -17.5625 C 12.054688 -18.957031 10.363281 -19.65625 8.28125 -19.65625 L 7.421875 -19.65625 Z M 7.421875 -5.03125 "/></g></g></g><g fill="#00fff7" fill-opacity="1"><g transform="translate(185.20609, 106.204596)"><g><path d="M 17.328125 -6.9375 L 6.1875 -6.9375 C 6.1875 -5.863281 6.535156 -5.066406 7.234375 -4.546875 C 7.929688 -4.023438 8.691406 -3.765625 9.515625 -3.765625 C 10.367188 -3.765625 11.046875 -3.878906 11.546875 -4.109375 C 12.046875 -4.335938 12.613281 -4.789062 13.25 -5.46875 L 17.078125 -3.5625 C 15.484375 -0.882812 12.832031 0.453125 9.125 0.453125 C 6.8125 0.453125 4.828125 -0.335938 3.171875 -1.921875 C 1.515625 -3.515625 0.6875 -5.425781 0.6875 -7.65625 C 0.6875 -9.894531 1.515625 -11.8125 3.171875 -13.40625 C 4.828125 -15 6.8125 -15.796875 9.125 -15.796875 C 11.5625 -15.796875 13.539062 -15.09375 15.0625 -13.6875 C 16.59375 -12.28125 17.359375 -10.269531 17.359375 -7.65625 C 17.359375 -7.300781 17.347656 -7.0625 17.328125 -6.9375 Z M 6.34375 -9.875 L 12.171875 -9.875 C 12.054688 -10.675781 11.742188 -11.289062 11.234375 -11.71875 C 10.722656 -12.144531 10.070312 -12.359375 9.28125 -12.359375 C 8.394531 -12.359375 7.691406 -12.128906 7.171875 -11.671875 C 6.660156 -11.210938 6.382812 -10.613281 6.34375 -9.875 Z M 6.34375 -9.875 "/></g></g></g><g fill="#00fff7" fill-opacity="1"><g transform="translate(203.251517, 106.204596)"><g><path d="M 8.46875 -15.796875 C 9.34375 -15.796875 10.207031 -15.695312 11.0625 -15.5 C 11.925781 -15.300781 12.566406 -15.101562 12.984375 -14.90625 L 13.609375 -14.609375 L 11.875 -11.125 C 10.675781 -11.769531 9.539062 -12.09375 8.46875 -12.09375 C 7.863281 -12.09375 7.4375 -12.023438 7.1875 -11.890625 C 6.945312 -11.765625 6.828125 -11.519531 6.828125 -11.15625 C 6.828125 -11.082031 6.832031 -11.003906 6.84375 -10.921875 C 6.863281 -10.835938 6.90625 -10.757812 6.96875 -10.6875 C 7.03125 -10.625 7.085938 -10.566406 7.140625 -10.515625 C 7.191406 -10.460938 7.273438 -10.40625 7.390625 -10.34375 C 7.503906 -10.289062 7.597656 -10.25 7.671875 -10.21875 C 7.742188 -10.1875 7.859375 -10.140625 8.015625 -10.078125 C 8.179688 -10.023438 8.300781 -9.984375 8.375 -9.953125 C 8.457031 -9.921875 8.59375 -9.875 8.78125 -9.8125 C 8.96875 -9.75 9.113281 -9.707031 9.21875 -9.6875 C 9.832031 -9.507812 10.367188 -9.3125 10.828125 -9.09375 C 11.285156 -8.875 11.769531 -8.570312 12.28125 -8.1875 C 12.789062 -7.8125 13.1875 -7.332031 13.46875 -6.75 C 13.75 -6.175781 13.890625 -5.519531 13.890625 -4.78125 C 13.890625 -1.289062 11.460938 0.453125 6.609375 0.453125 C 5.515625 0.453125 4.472656 0.285156 3.484375 -0.046875 C 2.492188 -0.390625 1.78125 -0.734375 1.34375 -1.078125 L 0.6875 -1.609375 L 2.84375 -5.234375 C 3 -5.097656 3.207031 -4.929688 3.46875 -4.734375 C 3.726562 -4.546875 4.195312 -4.285156 4.875 -3.953125 C 5.550781 -3.628906 6.140625 -3.46875 6.640625 -3.46875 C 7.734375 -3.46875 8.28125 -3.835938 8.28125 -4.578125 C 8.28125 -4.921875 8.140625 -5.1875 7.859375 -5.375 C 7.585938 -5.5625 7.117188 -5.773438 6.453125 -6.015625 C 5.785156 -6.253906 5.257812 -6.472656 4.875 -6.671875 C 3.914062 -7.171875 3.15625 -7.734375 2.59375 -8.359375 C 2.039062 -8.992188 1.765625 -9.828125 1.765625 -10.859375 C 1.765625 -12.421875 2.367188 -13.632812 3.578125 -14.5 C 4.785156 -15.363281 6.414062 -15.796875 8.46875 -15.796875 Z M 8.46875 -15.796875 "/></g></g></g><g fill="#00fff7" fill-opacity="1"><g transform="translate(217.975144, 106.204596)"><g><path d="M 2.296875 -23.90625 C 2.921875 -24.519531 3.660156 -24.828125 4.515625 -24.828125 C 5.378906 -24.828125 6.117188 -24.519531 6.734375 -23.90625 C 7.347656 -23.289062 7.65625 -22.550781 7.65625 -21.6875 C 7.65625 -20.832031 7.347656 -20.09375 6.734375 -19.46875 C 6.117188 -18.851562 5.378906 -18.546875 4.515625 -18.546875 C 3.660156 -18.546875 2.921875 -18.851562 2.296875 -19.46875 C 1.679688 -20.09375 1.375 -20.832031 1.375 -21.6875 C 1.375 -22.550781 1.679688 -23.289062 2.296875 -23.90625 Z M 1.796875 -15.34375 L 1.796875 0 L 7.09375 0 L 7.09375 -15.34375 Z M 1.796875 -15.34375 "/></g></g></g><g fill="#00fff7" fill-opacity="1"><g transform="translate(227.012818, 106.204596)"><g><path d="M 1.109375 3.765625 L 5.453125 1.640625 C 6.242188 2.960938 7.628906 3.625 9.609375 3.625 C 10.523438 3.625 11.375 3.328125 12.15625 2.734375 C 12.945312 2.148438 13.34375 1.25 13.34375 0.03125 L 13.34375 -1.109375 C 12.40625 -0.0664062 10.726562 0.453125 8.3125 0.453125 C 6.101562 0.453125 4.28125 -0.328125 2.84375 -1.890625 C 1.40625 -3.460938 0.6875 -5.382812 0.6875 -7.65625 C 0.6875 -9.9375 1.40625 -11.863281 2.84375 -13.4375 C 4.28125 -15.007812 6.101562 -15.796875 8.3125 -15.796875 C 10.289062 -15.796875 11.9375 -15.1875 13.25 -13.96875 L 13.34375 -13.96875 L 13.34375 -15.34375 L 18.640625 -15.34375 L 18.640625 0.421875 C 18.640625 2.910156 17.8125 4.832031 16.15625 6.1875 C 14.5 7.550781 12.316406 8.234375 9.609375 8.234375 C 5.210938 8.234375 2.378906 6.742188 1.109375 3.765625 Z M 7.34375 -10.265625 C 6.65625 -9.585938 6.3125 -8.71875 6.3125 -7.65625 C 6.3125 -6.601562 6.640625 -5.738281 7.296875 -5.0625 C 7.953125 -4.394531 8.820312 -4.0625 9.90625 -4.0625 C 10.9375 -4.0625 11.785156 -4.398438 12.453125 -5.078125 C 13.128906 -5.765625 13.46875 -6.625 13.46875 -7.65625 C 13.46875 -8.71875 13.125 -9.585938 12.4375 -10.265625 C 11.75 -10.941406 10.90625 -11.28125 9.90625 -11.28125 C 8.882812 -11.28125 8.03125 -10.941406 7.34375 -10.265625 Z M 7.34375 -10.265625 "/></g></g></g><g fill="#00fff7" fill-opacity="1"><g transform="translate(247.452331, 106.204596)"><g><path d="M 1.796875 0 L 1.796875 -15.34375 L 7.09375 -15.34375 L 7.09375 -13.734375 L 7.15625 -13.734375 C 8.53125 -15.109375 9.992188 -15.796875 11.546875 -15.796875 C 12.304688 -15.796875 13.0625 -15.695312 13.8125 -15.5 C 14.5625 -15.300781 15.28125 -14.988281 15.96875 -14.5625 C 16.65625 -14.144531 17.210938 -13.550781 17.640625 -12.78125 C 18.066406 -12.019531 18.28125 -11.128906 18.28125 -10.109375 L 18.28125 0 L 12.984375 0 L 12.984375 -8.671875 C 12.984375 -9.472656 12.726562 -10.171875 12.21875 -10.765625 C 11.707031 -11.367188 11.046875 -11.671875 10.234375 -11.671875 C 9.429688 -11.671875 8.707031 -11.359375 8.0625 -10.734375 C 7.414062 -10.117188 7.09375 -9.429688 7.09375 -8.671875 L 7.09375 0 Z M 1.796875 0 "/></g></g></g><g fill="#00fff7" fill-opacity="1"><g transform="translate(267.233466, 106.204596)"><g><path d="M 8.46875 -15.796875 C 9.34375 -15.796875 10.207031 -15.695312 11.0625 -15.5 C 11.925781 -15.300781 12.566406 -15.101562 12.984375 -14.90625 L 13.609375 -14.609375 L 11.875 -11.125 C 10.675781 -11.769531 9.539062 -12.09375 8.46875 -12.09375 C 7.863281 -12.09375 7.4375 -12.023438 7.1875 -11.890625 C 6.945312 -11.765625 6.828125 -11.519531 6.828125 -11.15625 C 6.828125 -11.082031 6.832031 -11.003906 6.84375 -10.921875 C 6.863281 -10.835938 6.90625 -10.757812 6.96875 -10.6875 C 7.03125 -10.625 7.085938 -10.566406 7.140625 -10.515625 C 7.191406 -10.460938 7.273438 -10.40625 7.390625 -10.34375 C 7.503906 -10.289062 7.597656 -10.25 7.671875 -10.21875 C 7.742188 -10.1875 7.859375 -10.140625 8.015625 -10.078125 C 8.179688 -10.023438 8.300781 -9.984375 8.375 -9.953125 C 8.457031 -9.921875 8.59375 -9.875 8.78125 -9.8125 C 8.96875 -9.75 9.113281 -9.707031 9.21875 -9.6875 C 9.832031 -9.507812 10.367188 -9.3125 10.828125 -9.09375 C 11.285156 -8.875 11.769531 -8.570312 12.28125 -8.1875 C 12.789062 -7.8125 13.1875 -7.332031 13.46875 -6.75 C 13.75 -6.175781 13.890625 -5.519531 13.890625 -4.78125 C 13.890625 -1.289062 11.460938 0.453125 6.609375 0.453125 C 5.515625 0.453125 4.472656 0.285156 3.484375 -0.046875 C 2.492188 -0.390625 1.78125 -0.734375 1.34375 -1.078125 L 0.6875 -1.609375 L 2.84375 -5.234375 C 3 -5.097656 3.207031 -4.929688 3.46875 -4.734375 C 3.726562 -4.546875 4.195312 -4.285156 4.875 -3.953125 C 5.550781 -3.628906 6.140625 -3.46875 6.640625 -3.46875 C 7.734375 -3.46875 8.28125 -3.835938 8.28125 -4.578125 C 8.28125 -4.921875 8.140625 -5.1875 7.859375 -5.375 C 7.585938 -5.5625 7.117188 -5.773438 6.453125 -6.015625 C 5.785156 -6.253906 5.257812 -6.472656 4.875 -6.671875 C 3.914062 -7.171875 3.15625 -7.734375 2.59375 -8.359375 C 2.039062 -8.992188 1.765625 -9.828125 1.765625 -10.859375 C 1.765625 -12.421875 2.367188 -13.632812 3.578125 -14.5 C 4.785156 -15.363281 6.414062 -15.796875 8.46875 -15.796875 Z M 8.46875 -15.796875 "/></g></g></g></svg>